# xmcd
#
# Track frame offsets: 
#        150
#        20677
#        41740
#
# Disc length: 769 seconds
#
# Revision: 0
# Processed by: cddbd v1.5.2PL0 Copyright (c) Steve Scherf et al.
# Submitted via: ExactAudioCopy v0.99pb5
#
DISCID=2002ff03
DTITLE=Westlife - Unbreakable 
DYEAR=2002
DGENRE=pop
TTITLE0=Unbreakable (Single Remix )
TTITLE1=Never Knew I Was Losing You
TTITLE2=World Of Our Own (Us Mix)
EXTD=
EXTT0=
EXTT1=
EXTT2=
PLAYORDER=
